<?xml version="1.0" ?><svg id="Layer_1_1_" style="enable-background:new 0 0 32 48;" version="1.1" viewBox="0 0 32 48" xml:space="preserve" xmlns="http://www.w3.org/2000/svg" xmlns:xlink="http://www.w3.org/1999/xlink"><circle cx="16" cy="13" r="2"/><path fill="#239D60" d="M31,48c0.553,0,1-0.447,1-1V32c0-0.342-0.175-0.66-0.463-0.844s-0.649-0.207-0.96-0.062L25,33.697V29  c0-0.425-0.269-0.803-0.669-0.943c-0.399-0.141-0.846-0.012-1.112,0.318L17,36.149V25.536l8.555-5.703  C25.833,19.647,26,19.334,26,19v-5.999c0-0.001,0-0.002,0-0.003V7c0-0.334-0.167-0.646-0.445-0.832l-9-6  c-0.336-0.225-0.773-0.225-1.109,0l-9,6C6.167,6.354,6,6.667,6,7v12c0,0.334,0.167,0.646,0.445,0.832L15,25.536V36.15l-6.219-7.774  c-0.266-0.331-0.713-0.459-1.112-0.318C7.268,28.198,7,28.576,7,29v4.696l-5.577-2.603c-0.31-0.145-0.672-0.121-0.96,0.062  C0.174,31.34,0,31.659,0,32v15c0,0.553,0.448,1,1,1s1-0.447,1-1v-13.43l5,2.333V45c0,0.553,0.448,1,1,1s1-0.447,1-1v-8.163  l6.577,3.069c0.006,0.003,0.012,0.002,0.017,0.004c0.014,0.006,0.029,0.011,0.044,0.017c0.018,0.007,0.036,0.012,0.055,0.018  c0.039,0.013,0.077,0.017,0.117,0.025c0.041,0.008,0.08,0.019,0.122,0.022c0.017,0.001,0.034,0.005,0.051,0.005  C15.988,39.997,15.993,40,16,40c0.007,0,0.012-0.004,0.019-0.004c0.018,0,0.035-0.004,0.053-0.005  c0.039-0.003,0.075-0.013,0.113-0.02c0.042-0.008,0.082-0.013,0.123-0.026c0.018-0.006,0.036-0.011,0.055-0.018  c0.015-0.006,0.029-0.01,0.043-0.016c0.006-0.003,0.012-0.002,0.017-0.004L23,36.837V45c0,0.553,0.447,1,1,1s1-0.447,1-1v-9.096  l5-2.333V47C30,47.553,30.447,48,31,48z M16,2.203l8,5.333v3.018C22.246,8.994,19.35,7,16,7c-3.35,0-6.246,1.993-8,3.553V7.536  L16,2.203z M23.654,13c-1.216,1.266-4.237,4-7.654,4c-3.417,0-6.439-2.734-7.654-4C9.561,11.735,12.583,9,16,9  C19.417,9,22.438,11.735,23.654,13z M8,15.448C9.754,17.008,12.65,19,16,19c3.35,0,6.246-1.993,8-3.553v3.018l-8,5.333l-8-5.333  V15.448z M9,31.851l3.548,4.435L9,34.63V31.851z M19.452,36.286L23,31.851v2.779L19.452,36.286z"/></svg>
