<?xml version="1.0" ?><svg id="Layer_1_1_" style="enable-background:new 0 0 43.999 41;" version="1.1" viewBox="0 0 43.999 41" xml:space="preserve" xmlns="http://www.w3.org/2000/svg" xmlns:xlink="http://www.w3.org/1999/xlink"><path d="M33.999,28c0.256,0,0.512-0.098,0.707-0.293l9-9c0.391-0.391,0.391-1.023,0-1.414l-9-9c-0.391-0.391-1.023-0.391-1.414,0  l-9,9c-0.092,0.092-0.165,0.203-0.216,0.325c-0.101,0.245-0.101,0.52,0,0.764c0.051,0.122,0.124,0.233,0.216,0.325l9,9  C33.487,27.902,33.743,28,33.999,28z M33.999,25.586L27.413,19h13.172L33.999,25.586z M33.999,10.414L40.585,17H27.413  L33.999,10.414z"/><path d="M21.292,21.293l-9,9c-0.391,0.391-0.391,1.023,0,1.414l8.999,8.999c0.092,0.093,0.203,0.166,0.326,0.217  C21.739,40.973,21.868,41,21.999,41s0.26-0.027,0.382-0.077c0.123-0.051,0.233-0.124,0.326-0.217l8.999-8.999  c0.391-0.391,0.391-1.023,0-1.414l-9-9C22.315,20.902,21.682,20.902,21.292,21.293z M20.999,24.414v13.172L14.413,31L20.999,24.414z   M22.999,37.586V24.414L29.585,31L22.999,37.586z"/><path d="M12.22,5.373c-0.295,0.366-0.295,0.889,0,1.255C12.397,6.847,16.611,12,21.999,12s9.602-5.153,9.779-5.373  c0.295-0.366,0.295-0.889,0-1.255C31.601,5.153,27.386,0,21.999,0S12.397,5.153,12.22,5.373z M21.999,2c3.417,0,6.439,2.734,7.654,4  c-1.215,1.266-4.238,4-7.654,4s-6.439-2.734-7.654-4C15.56,4.734,18.582,2,21.999,2z"/><circle cx="21.999" cy="6" r="2"/><path d="M0.076,17.618c-0.101,0.245-0.101,0.52,0,0.764c0.051,0.122,0.124,0.233,0.216,0.325l9,9C9.487,27.902,9.743,28,9.999,28  s0.512-0.098,0.707-0.293l9-9c0.092-0.092,0.165-0.203,0.216-0.325c0.101-0.245,0.101-0.52,0-0.764  c-0.051-0.122-0.124-0.233-0.216-0.325l-9-9c-0.391-0.391-1.023-0.391-1.414,0l-9,9C0.2,17.385,0.127,17.495,0.076,17.618z   M9.999,25.586L3.413,19h13.172L9.999,25.586z M9.999,10.414L16.585,17H3.413L9.999,10.414z"/></svg>