<?xml version="1.0" ?><svg id="Layer_1_1_" style="enable-background:new 0 0 60 60;" version="1.1" viewBox="0 0 60 60" xml:space="preserve" xmlns="http://www.w3.org/2000/svg" xmlns:xlink="http://www.w3.org/1999/xlink"><path fill="#D02E77" d="M59,29C43.561,29,31,16.439,31,1c0-0.552-0.448-1-1-1s-1,0.448-1,1c0,15.439-12.561,28-28,28c-0.552,0-1,0.448-1,1  s0.448,1,1,1c15.439,0,28,12.561,28,28c0,0.552,0.448,1,1,1s1-0.448,1-1c0-15.439,12.561-28,28-28c0.552,0,1-0.448,1-1  S59.552,29,59,29z M30,51.322C27.249,40.94,19.06,32.751,8.678,30C19.06,27.249,27.249,19.06,30,8.678  C32.751,19.06,40.94,27.249,51.322,30C40.94,32.751,32.751,40.94,30,51.322z"/><path fill="#D02E77" d="M30,23c-3.86,0-7,3.14-7,7s3.14,7,7,7s7-3.14,7-7S33.86,23,30,23z M30,35c-2.757,0-5-2.243-5-5s2.243-5,5-5s5,2.243,5,5  S32.757,35,30,35z"/><circle cx="30" cy="30" r="2"/></svg>
