<?xml version="1.0" ?><svg id="Layer_1_1_" style="enable-background:new 0 0 48 52;" version="1.1" viewBox="0 0 48 52" xml:space="preserve" xmlns="http://www.w3.org/2000/svg" xmlns:xlink="http://www.w3.org/1999/xlink"><circle cx="24" cy="14" r="2"/><path fill="#6DB193" d="M47,27c0.553,0,1-0.447,1-1s-0.447-1-1-1h-4v-3h4c0.553,0,1-0.447,1-1s-0.447-1-1-1h-4v-1c0-0.13-0.026-0.26-0.077-0.382  c-0.051-0.123-0.125-0.234-0.217-0.327l-4.999-4.999l-13-13c-0.391-0.391-1.023-0.391-1.414,0l-13,13l-4.999,4.999  c-0.093,0.092-0.166,0.203-0.217,0.326C5.026,18.74,5,18.87,5,19v1H1c-0.553,0-1,0.447-1,1s0.447,1,1,1h4v3H1c-0.553,0-1,0.447-1,1  s0.447,1,1,1h4v3H1c-0.553,0-1,0.447-1,1s0.447,1,1,1h4v1c0,0.266,0.105,0.52,0.293,0.707l18,18C23.488,51.902,23.744,52,24,52  s0.512-0.098,0.707-0.293l18-18C42.895,33.52,43,33.266,43,33v-1h4c0.553,0,1-0.447,1-1s-0.447-1-1-1h-4v-3H47z M24,35.586  L20.414,32L24,28.414L27.586,32L24,35.586z M24,20c2.562,0,4.936-0.597,6.97-1.384L24,25.586l-6.97-6.97  C19.064,19.403,21.438,20,24,20z M12.652,13.999C14.553,12.655,18.946,10,24,10c5.038,0,9.443,2.658,11.348,4.001  C33.447,15.345,29.054,18,24,18C18.962,18,14.557,15.342,12.652,13.999z M29,30.586L25.414,27L37,15.414L40.586,19L29,30.586z   M24,2.414l6.97,6.97C28.936,8.597,26.562,8,24,8s-4.936,0.597-6.97,1.384L24,2.414z M11,15.414L22.586,27L19,30.586L7.414,19  L11,15.414z M7,21.414l11.293,11.293L22.586,37L17,42.586l-10-10V21.414z M24,49.586L18.414,44L24,38.414L29.586,44L24,49.586z   M41,32.586l-10,10L25.414,37l4.293-4.293L41,21.414V32.586z"/></svg>
