<?xml version="1.0" ?><svg id="Layer_1_1_" style="enable-background:new 0 0 34 49.972;" version="1.1" viewBox="0 0 34 49.972" xml:space="preserve" xmlns="http://www.w3.org/2000/svg" xmlns:xlink="http://www.w3.org/1999/xlink"><path fill="#FFF1C1" d="M33.93,24.626c-0.013-0.035-0.03-0.066-0.047-0.1c-0.018-0.036-0.028-0.074-0.051-0.108l-8-12l-8-12  c-0.371-0.557-1.293-0.557-1.664,0l-8,12l-8,12c-0.023,0.034-0.033,0.072-0.051,0.108c-0.017,0.033-0.034,0.065-0.047,0.1  C0.028,24.738,0,24.855,0,24.973v18.999c0,0.553,0.448,1,1,1s1-0.447,1-1V28.275l6.168,9.252l8,12  c0.186,0.278,0.498,0.445,0.832,0.445s0.646-0.167,0.832-0.445l8-12L32,28.275v15.697c0,0.553,0.448,1,1,1s1-0.447,1-1V24.973  C34,24.854,33.972,24.738,33.93,24.626z M17,2.775l6.798,10.197L17,23.169l-6.798-10.197L17,2.775z M9,14.775l6.798,10.197L9,35.169  L2.202,24.972L9,14.775z M17,47.169l-6.798-10.197L17,26.775l6.798,10.197L17,47.169z M25,35.169l-6.798-10.197L25,14.775  l6.798,10.197L25,35.169z"/><circle cx="17" cy="12.972" r="2"/></svg>
