<?xml version="1.0" ?><svg id="Layer_1_1_" style="enable-background:new 0 0 38 44;" version="1.1" viewBox="0 0 38 44" xml:space="preserve" xmlns="http://www.w3.org/2000/svg" xmlns:xlink="http://www.w3.org/1999/xlink"><path d="M4,14v16c0,0.359,0.192,0.69,0.504,0.868l14,8C18.658,38.956,18.829,39,19,39s0.342-0.044,0.496-0.132l14-8  C33.808,30.69,34,30.359,34,30V14c0-0.359-0.192-0.69-0.504-0.868l-14-8c-0.308-0.176-0.685-0.176-0.992,0l-14,8  C4.192,13.31,4,13.641,4,14z M6,14.58l13-7.428l13,7.428v14.84l-13,7.428L6,29.42V14.58z"/><path d="M9.126,6.486c0.268,0.482,0.876,0.656,1.36,0.388L19,2.144l8.515,4.73C27.668,6.959,27.835,7,27.999,7  c0.352,0,0.692-0.186,0.875-0.514c0.269-0.483,0.095-1.092-0.389-1.36l-9-5c-0.303-0.168-0.669-0.168-0.972,0l-9,5  C9.032,5.394,8.857,6.003,9.126,6.486z"/><path d="M27.515,37.126L19,41.856l-8.514-4.73c-0.484-0.268-1.092-0.094-1.36,0.388c-0.269,0.483-0.094,1.092,0.388,1.36l9,5  C18.666,43.958,18.833,44,19,44s0.334-0.042,0.486-0.126l9-5c0.483-0.268,0.657-0.877,0.389-1.36  C28.605,37.032,27.997,36.858,27.515,37.126z"/><path d="M36,16v11c0,0.552,0.447,1,1,1s1-0.448,1-1V16c0-0.552-0.447-1-1-1S36,15.448,36,16z"/><path d="M0,16v11c0,0.552,0.448,1,1,1s1-0.448,1-1V16c0-0.552-0.448-1-1-1S0,15.448,0,16z"/><path d="M28.778,22.627c0.296-0.366,0.296-0.889,0-1.255C28.602,21.153,24.387,16,19,16c-5.387,0-9.602,5.153-9.779,5.373  c-0.295,0.366-0.295,0.889,0,1.255C9.398,22.847,13.613,28,19,28C24.387,28,28.602,22.847,28.778,22.627z M11.346,22  c1.215-1.266,4.238-4,7.654-4c3.417,0,6.438,2.734,7.654,4c-1.216,1.266-4.237,4-7.654,4C15.583,26,12.561,23.266,11.346,22z"/><circle cx="19" cy="22" r="2"/></svg>