<?xml version="1.0" ?><svg id="Layer_1_1_" style="enable-background:new 0 0 30.003 49;" version="1.1" viewBox="0 0 30.003 49" xml:space="preserve" xmlns="http://www.w3.org/2000/svg" xmlns:xlink="http://www.w3.org/1999/xlink"><path d="M26.204,24.203c4.13-4.13,3.804-10.959,3.787-11.249c-0.027-0.509-0.434-0.915-0.943-0.943  c-0.288-0.018-7.12-0.343-11.248,3.787c-0.733,0.733-1.319,1.552-1.798,2.403v-6.253c5.418-0.521,9.561-5.075,9.745-5.28  c0.34-0.379,0.34-0.955,0-1.334C25.551,5.115,20.903,0,15.002,0S4.452,5.115,4.256,5.333c-0.34,0.379-0.34,0.955,0,1.334  c0.184,0.205,4.327,4.759,9.745,5.28V18.2c-0.479-0.851-1.065-1.67-1.798-2.403c-4.129-4.13-10.961-3.803-11.248-3.787  c-0.51,0.028-0.916,0.435-0.943,0.943c-0.017,0.289-0.343,7.119,3.787,11.249c3.222,3.222,8.082,3.73,10.202,3.791V35.2  c-0.479-0.851-1.065-1.67-1.798-2.403c-4.129-4.131-10.957-3.804-11.248-3.787c-0.51,0.027-0.916,0.434-0.943,0.943  c-0.017,0.288-0.343,7.119,3.787,11.248c3.222,3.224,8.083,3.731,10.202,3.791V48c0,0.553,0.447,1,1,1s1-0.447,1-1v-3.006  c2.12-0.061,6.98-0.569,10.202-3.791c4.13-4.129,3.804-10.96,3.787-11.248c-0.027-0.51-0.434-0.916-0.943-0.943  c-0.288-0.019-7.119-0.342-11.248,3.787c-0.733,0.732-1.319,1.552-1.798,2.403v-7.207C18.121,27.933,22.982,27.425,26.204,24.203z   M19.213,17.211c2.668-2.667,6.902-3.131,8.778-3.2c-0.065,1.874-0.524,6.099-3.202,8.777c-2.668,2.667-6.902,3.131-8.778,3.2  C16.077,24.115,16.536,19.889,19.213,17.211z M15.002,2c3.827,0,7.195,2.709,8.582,4c-1.387,1.291-4.755,4-8.582,4  S7.806,7.291,6.42,6C7.806,4.709,11.174,2,15.002,2z M5.213,22.789c-2.668-2.668-3.132-6.903-3.2-8.778  c1.873,0.065,6.1,0.524,8.776,3.201c2.668,2.668,3.132,6.903,3.2,8.779C12.117,25.925,7.89,25.466,5.213,22.789z M5.213,39.788  c-2.668-2.668-3.132-6.902-3.2-8.778c1.873,0.065,6.1,0.524,8.776,3.202c2.668,2.668,3.132,6.902,3.2,8.778  C12.117,42.925,7.89,42.466,5.213,39.788z M19.213,34.212c2.668-2.668,6.902-3.132,8.778-3.2c-0.065,1.873-0.524,6.1-3.202,8.776  c-2.668,2.668-6.902,3.132-8.778,3.2C16.077,41.115,16.536,36.889,19.213,34.212z"/><circle cx="15.002" cy="6" r="2"/></svg>