<?xml version="1.0" ?><svg id="Layer_1_1_" style="enable-background:new 0 0 50 47;" version="1.1" viewBox="0 0 50 47" xml:space="preserve" xmlns="http://www.w3.org/2000/svg" xmlns:xlink="http://www.w3.org/1999/xlink"><path fill="#D9FAFF" d="M49.891,32.565c-0.041-0.083-0.092-0.159-0.154-0.229c-0.016-0.018-0.027-0.037-0.044-0.054  c-0.072-0.07-0.153-0.131-0.245-0.177L42,28.382V20c0-0.121-0.029-0.236-0.07-0.346c-0.012-0.031-0.025-0.06-0.039-0.089  c-0.041-0.083-0.092-0.159-0.154-0.229c-0.016-0.018-0.027-0.037-0.044-0.054c-0.072-0.07-0.153-0.131-0.245-0.177L34,15.382V6  c0-0.119-0.028-0.236-0.07-0.349c-0.015-0.04-0.036-0.074-0.056-0.112c-0.021-0.04-0.034-0.084-0.061-0.121  C33.654,5.196,29.876,0,25,0s-8.654,5.196-8.813,5.418c-0.028,0.039-0.041,0.083-0.062,0.124c-0.019,0.036-0.039,0.069-0.054,0.108  C16.028,5.763,16,5.881,16,6.001v9.381l-7.447,3.724c-0.092,0.046-0.173,0.108-0.245,0.177c-0.017,0.016-0.028,0.035-0.043,0.052  c-0.063,0.07-0.114,0.146-0.155,0.23c-0.014,0.029-0.028,0.057-0.039,0.088C8.029,19.764,8,19.879,8,20v8.382l-7.447,3.724  c-0.092,0.046-0.173,0.108-0.245,0.177c-0.017,0.016-0.028,0.035-0.043,0.052c-0.063,0.07-0.114,0.146-0.155,0.23  c-0.014,0.029-0.028,0.057-0.039,0.088C0.029,32.764,0,32.879,0,33v9c0,0.379,0.214,0.725,0.553,0.895l8,4  c0.009,0.004,0.019,0.003,0.028,0.007C8.709,46.961,8.849,47,9,47s0.291-0.039,0.419-0.099c0.009-0.004,0.019-0.002,0.028-0.007  L17,43.118l7.553,3.776c0.009,0.004,0.019,0.003,0.028,0.007C24.709,46.961,24.849,47,25,47s0.291-0.039,0.419-0.099  c0.009-0.004,0.019-0.002,0.028-0.007L33,43.118l7.553,3.776c0.009,0.004,0.019,0.002,0.028,0.006C40.709,46.961,40.849,47,41,47  s0.291-0.039,0.42-0.099c0.009-0.004,0.019-0.002,0.027-0.006l8-4C49.786,42.725,50,42.379,50,42v-9c0-0.121-0.029-0.236-0.07-0.346  C49.919,32.623,49.905,32.595,49.891,32.565z M41,35.882L35.236,33L41,30.118L46.764,33L41,35.882z M10,37.618l6-3v6.764l-6,3  V37.618z M32,8.625v6.757l-6,3v-6.459C28.476,11.568,30.594,9.982,32,8.625z M40,28.382l-6,3v-6.764l6-3V28.382z M32,31.382l-6-3  v-6.764l6,3V31.382z M24,18.382l-6-3V8.625c1.406,1.357,3.524,2.943,6,3.298V18.382z M24,28.382l-6,3v-6.764l6-3V28.382z M16,31.382  l-6-3v-6.764l6,3V31.382z M25,30.118L30.764,33L25,35.882L19.236,33L25,30.118z M26,37.618l6-3v6.764l-6,3V37.618z M33,22.882  L27.236,20L33,17.118L38.764,20L33,22.882z M25,2c3,0,5.677,2.765,6.722,4C30.677,7.235,28,10,25,10c-3,0-5.676-2.765-6.722-4  C19.324,4.765,22,2,25,2z M17,17.118L22.764,20L17,22.882L11.236,20L17,17.118z M9,30.118L14.764,33L9,35.882L3.236,33L9,30.118z   M2,34.618l6,3v6.764l-6-3V34.618z M18,34.618l6,3v6.764l-6-3V34.618z M34,34.618l6,3v6.764l-6-3V34.618z M42,44.382v-6.764l6-3  v6.764L42,44.382z"/><circle cx="25" cy="6" r="2"/></svg>
