<?xml version="1.0" ?><svg id="Layer_1_1_" style="enable-background:new 0 0 42 46;" version="1.1" viewBox="0 0 42 46" xml:space="preserve" xmlns="http://www.w3.org/2000/svg" xmlns:xlink="http://www.w3.org/1999/xlink"><path d="M21,16c-6.994,0-12.514,6.074-12.745,6.333c-0.34,0.38-0.34,0.954,0,1.334C8.486,23.926,14.006,30,21,30  s12.514-6.074,12.745-6.333c0.34-0.38,0.34-0.954,0-1.334C33.514,22.074,27.994,16,21,16z M21,28c-4.81,0-9.012-3.501-10.591-5  c1.579-1.499,5.781-5,10.591-5s9.012,3.501,10.591,5C30.012,24.499,25.81,28,21,28z"/><circle cx="21" cy="23" r="2"/><path d="M1,0C0.448,0,0,0.447,0,1v4c0,0.553,0.448,1,1,1s1-0.447,1-1V1C2,0.447,1.552,0,1,0z"/><path d="M6,0C5.448,0,5,0.447,5,1v4c0,0.553,0.448,1,1,1s1-0.447,1-1V1C7,0.447,6.552,0,6,0z"/><path d="M11,6c0.552,0,1-0.447,1-1V1c0-0.553-0.448-1-1-1s-1,0.447-1,1v4C10,5.553,10.448,6,11,6z"/><path d="M16,6c0.552,0,1-0.447,1-1V1c0-0.553-0.448-1-1-1s-1,0.447-1,1v4C15,5.553,15.448,6,16,6z"/><path d="M21,6c0.552,0,1-0.447,1-1V1c0-0.553-0.448-1-1-1s-1,0.447-1,1v4C20,5.553,20.448,6,21,6z"/><path d="M26,6c0.552,0,1-0.447,1-1V1c0-0.553-0.448-1-1-1s-1,0.447-1,1v4C25,5.553,25.448,6,26,6z"/><path d="M31,6c0.552,0,1-0.447,1-1V1c0-0.553-0.448-1-1-1s-1,0.447-1,1v4C30,5.553,30.448,6,31,6z"/><path d="M36,0c-0.552,0-1,0.447-1,1v4c0,0.553,0.448,1,1,1s1-0.447,1-1V1C37,0.447,36.552,0,36,0z"/><path d="M41,0c-0.552,0-1,0.447-1,1v4c0,0.553,0.448,1,1,1s1-0.447,1-1V1C42,0.447,41.552,0,41,0z"/><path d="M1,8C0.448,8,0,8.447,0,9v4c0,0.553,0.448,1,1,1s1-0.447,1-1V9C2,8.447,1.552,8,1,8z"/><path d="M6,8C5.448,8,5,8.447,5,9v4c0,0.553,0.448,1,1,1s1-0.447,1-1V9C7,8.447,6.552,8,6,8z"/><path d="M10,13c0,0.553,0.448,1,1,1s1-0.447,1-1V9c0-0.553-0.448-1-1-1s-1,0.447-1,1V13z"/><path d="M15,13c0,0.553,0.448,1,1,1s1-0.447,1-1V9c0-0.553-0.448-1-1-1s-1,0.447-1,1V13z"/><path d="M20,13c0,0.553,0.448,1,1,1s1-0.447,1-1V9c0-0.553-0.448-1-1-1s-1,0.447-1,1V13z"/><path d="M25,13c0,0.553,0.448,1,1,1s1-0.447,1-1V9c0-0.553-0.448-1-1-1s-1,0.447-1,1V13z"/><path d="M30,13c0,0.553,0.448,1,1,1s1-0.447,1-1V9c0-0.553-0.448-1-1-1s-1,0.447-1,1V13z"/><path d="M36,8c-0.552,0-1,0.447-1,1v4c0,0.553,0.448,1,1,1s1-0.447,1-1V9C37,8.447,36.552,8,36,8z"/><path d="M41,8c-0.552,0-1,0.447-1,1v4c0,0.553,0.448,1,1,1s1-0.447,1-1V9C42,8.447,41.552,8,41,8z"/><path d="M1,16c-0.552,0-1,0.447-1,1v4c0,0.553,0.448,1,1,1s1-0.447,1-1v-4C2,16.447,1.552,16,1,16z"/><path d="M6,16c-0.552,0-1,0.447-1,1v4c0,0.553,0.448,1,1,1s1-0.447,1-1v-4C7,16.447,6.552,16,6,16z"/><path d="M36,16c-0.552,0-1,0.447-1,1v4c0,0.553,0.448,1,1,1s1-0.447,1-1v-4C37,16.447,36.552,16,36,16z"/><path d="M41,16c-0.552,0-1,0.447-1,1v4c0,0.553,0.448,1,1,1s1-0.447,1-1v-4C42,16.447,41.552,16,41,16z"/><path d="M1,24c-0.552,0-1,0.447-1,1v4c0,0.553,0.448,1,1,1s1-0.447,1-1v-4C2,24.447,1.552,24,1,24z"/><path d="M6,24c-0.552,0-1,0.447-1,1v4c0,0.553,0.448,1,1,1s1-0.447,1-1v-4C7,24.447,6.552,24,6,24z"/><path d="M36,24c-0.552,0-1,0.447-1,1v4c0,0.553,0.448,1,1,1s1-0.447,1-1v-4C37,24.447,36.552,24,36,24z"/><path d="M41,24c-0.552,0-1,0.447-1,1v4c0,0.553,0.448,1,1,1s1-0.447,1-1v-4C42,24.447,41.552,24,41,24z"/><path d="M1,32c-0.552,0-1,0.447-1,1v4c0,0.553,0.448,1,1,1s1-0.447,1-1v-4C2,32.447,1.552,32,1,32z"/><path d="M6,32c-0.552,0-1,0.447-1,1v4c0,0.553,0.448,1,1,1s1-0.447,1-1v-4C7,32.447,6.552,32,6,32z"/><path d="M11,32c-0.552,0-1,0.447-1,1v4c0,0.553,0.448,1,1,1s1-0.447,1-1v-4C12,32.447,11.552,32,11,32z"/><path d="M16,32c-0.552,0-1,0.447-1,1v4c0,0.553,0.448,1,1,1s1-0.447,1-1v-4C17,32.447,16.552,32,16,32z"/><path d="M21,32c-0.552,0-1,0.447-1,1v4c0,0.553,0.448,1,1,1s1-0.447,1-1v-4C22,32.447,21.552,32,21,32z"/><path d="M26,32c-0.552,0-1,0.447-1,1v4c0,0.553,0.448,1,1,1s1-0.447,1-1v-4C27,32.447,26.552,32,26,32z"/><path d="M31,32c-0.552,0-1,0.447-1,1v4c0,0.553,0.448,1,1,1s1-0.447,1-1v-4C32,32.447,31.552,32,31,32z"/><path d="M36,32c-0.552,0-1,0.447-1,1v4c0,0.553,0.448,1,1,1s1-0.447,1-1v-4C37,32.447,36.552,32,36,32z"/><path d="M41,32c-0.552,0-1,0.447-1,1v4c0,0.553,0.448,1,1,1s1-0.447,1-1v-4C42,32.447,41.552,32,41,32z"/><path d="M1,40c-0.552,0-1,0.447-1,1v4c0,0.553,0.448,1,1,1s1-0.447,1-1v-4C2,40.447,1.552,40,1,40z"/><path d="M6,40c-0.552,0-1,0.447-1,1v4c0,0.553,0.448,1,1,1s1-0.447,1-1v-4C7,40.447,6.552,40,6,40z"/><path d="M11,40c-0.552,0-1,0.447-1,1v4c0,0.553,0.448,1,1,1s1-0.447,1-1v-4C12,40.447,11.552,40,11,40z"/><path d="M16,40c-0.552,0-1,0.447-1,1v4c0,0.553,0.448,1,1,1s1-0.447,1-1v-4C17,40.447,16.552,40,16,40z"/><path d="M21,40c-0.552,0-1,0.447-1,1v4c0,0.553,0.448,1,1,1s1-0.447,1-1v-4C22,40.447,21.552,40,21,40z"/><path d="M26,40c-0.552,0-1,0.447-1,1v4c0,0.553,0.448,1,1,1s1-0.447,1-1v-4C27,40.447,26.552,40,26,40z"/><path d="M31,40c-0.552,0-1,0.447-1,1v4c0,0.553,0.448,1,1,1s1-0.447,1-1v-4C32,40.447,31.552,40,31,40z"/><path d="M36,40c-0.552,0-1,0.447-1,1v4c0,0.553,0.448,1,1,1s1-0.447,1-1v-4C37,40.447,36.552,40,36,40z"/><path d="M41,40c-0.552,0-1,0.447-1,1v4c0,0.553,0.448,1,1,1s1-0.447,1-1v-4C42,40.447,41.552,40,41,40z"/></svg>