<?xml version="1.0" ?><svg id="Layer_1_1_" style="enable-background:new 0 0 48 48;" version="1.1" viewBox="0 0 48 48" xml:space="preserve" xmlns="http://www.w3.org/2000/svg" xmlns:xlink="http://www.w3.org/1999/xlink"><path d="M18.402,28.184l-7.217,7.217C10.015,34.526,8.57,34,7,34c-3.859,0-7,3.14-7,7s3.141,7,7,7s7-3.14,7-7  c0-1.57-0.526-3.015-1.402-4.184l7.217-7.217c0.915,0.686,2.001,1.151,3.184,1.322v3.16c-3.386,0.488-6,3.401-6,6.92  c0,3.86,3.141,7,7,7s7-3.14,7-7c0-3.519-2.614-6.432-6-6.92v-3.16c1.183-0.17,2.269-0.636,3.184-1.322l7.217,7.217  C34.526,37.985,34,39.43,34,41c0,3.86,3.141,7,7,7s7-3.14,7-7s-3.141-7-7-7c-1.57,0-3.015,0.526-4.184,1.402l-7.217-7.217  c0.686-0.915,1.151-2.001,1.322-3.184h3.16c0.488,3.387,3.401,6,6.92,6c3.859,0,7-3.14,7-7s-3.141-7-7-7  c-3.519,0-6.432,2.613-6.92,6h-3.16c-0.17-1.183-0.636-2.269-1.322-3.184l7.217-7.217C37.985,13.474,39.43,14,41,14  c3.859,0,7-3.14,7-7s-3.141-7-7-7s-7,3.14-7,7c0,1.57,0.526,3.015,1.402,4.184l-7.217,7.217C27.269,17.716,26.183,17.25,25,17.08  v-3.16c3.386-0.488,6-3.401,6-6.92c0-3.86-3.141-7-7-7s-7,3.14-7,7c0,3.519,2.614,6.432,6,6.92v3.16  c-1.183,0.17-2.269,0.636-3.184,1.322l-7.217-7.217C13.474,10.015,14,8.57,14,7c0-3.86-3.141-7-7-7S0,3.14,0,7s3.141,7,7,7  c1.57,0,3.015-0.526,4.184-1.402l7.217,7.217C17.716,20.731,17.25,21.817,17.08,23h-3.16c-0.488-3.387-3.401-6-6.92-6  c-3.859,0-7,3.14-7,7s3.141,7,7,7c3.519,0,6.432-2.613,6.92-6h3.16C17.25,26.183,17.716,27.269,18.402,28.184z M24,19  c2.757,0,5,2.243,5,5s-2.243,5-5,5s-5-2.243-5-5S21.243,19,24,19z M7,46c-2.757,0-5-2.243-5-5s2.243-5,5-5s5,2.243,5,5  S9.757,46,7,46z M29,41c0,2.757-2.243,5-5,5s-5-2.243-5-5s2.243-5,5-5S29,38.243,29,41z M46,41c0,2.757-2.243,5-5,5s-5-2.243-5-5  s2.243-5,5-5S46,38.243,46,41z M41,19c2.757,0,5,2.243,5,5s-2.243,5-5,5s-5-2.243-5-5S38.243,19,41,19z M41,2c2.757,0,5,2.243,5,5  s-2.243,5-5,5s-5-2.243-5-5S38.243,2,41,2z M19,7c0-2.757,2.243-5,5-5s5,2.243,5,5s-2.243,5-5,5S19,9.757,19,7z M2,7  c0-2.757,2.243-5,5-5s5,2.243,5,5s-2.243,5-5,5S2,9.757,2,7z M7,29c-2.757,0-5-2.243-5-5s2.243-5,5-5s5,2.243,5,5S9.757,29,7,29z"/><circle cx="24" cy="24" r="2"/></svg>