<?xml version="1.0" ?><svg id="Layer_1_1_" style="enable-background:new 0 0 52 52;" version="1.1" viewBox="0 0 52 52" xml:space="preserve" xmlns="http://www.w3.org/2000/svg" xmlns:xlink="http://www.w3.org/1999/xlink"><path d="M1,52h50c0.552,0,1-0.448,1-1V1c0-0.552-0.448-1-1-1H1C0.448,0,0,0.448,0,1v50C0,51.552,0.448,52,1,52z M2,2h48v48H2V2z"/><path d="M47,4H5C4.448,4,4,4.448,4,5v42c0,0.552,0.448,1,1,1h42c0.552,0,1-0.448,1-1V5C48,4.448,47.552,4,47,4z M46,46H6V6h40V46z"/><path d="M9,44h34c0.552,0,1-0.448,1-1V9c0-0.552-0.448-1-1-1H9C8.448,8,8,8.448,8,9v34C8,43.552,8.448,44,9,44z M10,10h32v32H10V10z  "/><path d="M39,12H13c-0.552,0-1,0.448-1,1v26c0,0.552,0.448,1,1,1h26c0.552,0,1-0.448,1-1V13C40,12.448,39.552,12,39,12z M38,38H14V14  h24V38z"/><path d="M17,36h18c0.552,0,1-0.448,1-1V17c0-0.552-0.448-1-1-1H17c-0.552,0-1,0.448-1,1v18C16,35.552,16.448,36,17,36z M18,18h16v16  H18V18z"/><path d="M31,20H21c-0.552,0-1,0.448-1,1v10c0,0.552,0.448,1,1,1h10c0.552,0,1-0.448,1-1V21C32,20.448,31.552,20,31,20z M30,30h-8v-8  h8V30z"/><circle cx="26" cy="26" r="2"/></svg>