<?xml version="1.0" ?><svg id="Layer_1_1_" style="enable-background:new 0 0 60 55.391;" version="1.1" viewBox="0 0 60 55.391" xml:space="preserve" xmlns="http://www.w3.org/2000/svg" xmlns:xlink="http://www.w3.org/1999/xlink"><path d="M59,39.391H40.949c-0.081-0.89-0.273-1.747-0.554-2.564l19.013-8.523l-0.818-1.825l-19.012,8.523  c-0.36-0.636-0.781-1.232-1.256-1.781l21.396-22.134l-1.438-1.39L36.888,31.827c-0.525-0.423-1.087-0.801-1.684-1.124L47.92,0.782  L46.08,0L33.363,29.922c-0.756-0.243-1.546-0.406-2.363-0.48V0.391h-2v29.051c-0.817,0.074-1.607,0.236-2.363,0.48L13.92,0  L12.08,0.782l12.717,29.922c-0.597,0.322-1.159,0.701-1.684,1.124L1.719,9.696l-1.438,1.39L21.677,33.22  c-0.475,0.55-0.896,1.145-1.256,1.782L1.409,26.479l-0.818,1.825l19.013,8.523c-0.281,0.817-0.473,1.674-0.554,2.564H1  c-0.552,0-1,0.448-1,1s0.448,1,1,1h58c0.552,0,1-0.448,1-1S59.552,39.391,59,39.391z M30,31.391c4.624,0,8.441,3.507,8.941,8H21.059  C21.559,34.898,25.376,31.391,30,31.391z"/><path d="M5,45.391h6c0.552,0,1-0.448,1-1s-0.448-1-1-1H5c-0.552,0-1,0.448-1,1S4.448,45.391,5,45.391z"/><path d="M16,45.391h6c0.552,0,1-0.448,1-1s-0.448-1-1-1h-6c-0.552,0-1,0.448-1,1S15.448,45.391,16,45.391z"/><path d="M27,45.391h6c0.552,0,1-0.448,1-1s-0.448-1-1-1h-6c-0.552,0-1,0.448-1,1S26.448,45.391,27,45.391z"/><path d="M38,45.391h6c0.552,0,1-0.448,1-1s-0.448-1-1-1h-6c-0.552,0-1,0.448-1,1S37.448,45.391,38,45.391z"/><path d="M55,43.391h-6c-0.552,0-1,0.448-1,1s0.448,1,1,1h6c0.552,0,1-0.448,1-1S55.552,43.391,55,43.391z"/><path d="M5,50.391h6c0.552,0,1-0.448,1-1s-0.448-1-1-1H5c-0.552,0-1,0.448-1,1S4.448,50.391,5,50.391z"/><path d="M16,50.391h6c0.552,0,1-0.448,1-1s-0.448-1-1-1h-6c-0.552,0-1,0.448-1,1S15.448,50.391,16,50.391z"/><path d="M27,50.391h6c0.552,0,1-0.448,1-1s-0.448-1-1-1h-6c-0.552,0-1,0.448-1,1S26.448,50.391,27,50.391z"/><path d="M38,50.391h6c0.552,0,1-0.448,1-1s-0.448-1-1-1h-6c-0.552,0-1,0.448-1,1S37.448,50.391,38,50.391z"/><path d="M55,48.391h-6c-0.552,0-1,0.448-1,1s0.448,1,1,1h6c0.552,0,1-0.448,1-1S55.552,48.391,55,48.391z"/><path d="M5,55.391h6c0.552,0,1-0.448,1-1s-0.448-1-1-1H5c-0.552,0-1,0.448-1,1S4.448,55.391,5,55.391z"/><path d="M16,55.391h6c0.552,0,1-0.448,1-1s-0.448-1-1-1h-6c-0.552,0-1,0.448-1,1S15.448,55.391,16,55.391z"/><path d="M27,55.391h6c0.552,0,1-0.448,1-1s-0.448-1-1-1h-6c-0.552,0-1,0.448-1,1S26.448,55.391,27,55.391z"/><path d="M38,55.391h6c0.552,0,1-0.448,1-1s-0.448-1-1-1h-6c-0.552,0-1,0.448-1,1S37.448,55.391,38,55.391z"/><path d="M55,53.391h-6c-0.552,0-1,0.448-1,1s0.448,1,1,1h6c0.552,0,1-0.448,1-1S55.552,53.391,55,53.391z"/><circle cx="30" cy="36.391" r="2"/></svg>