<?xml version="1.0" ?><svg id="Layer_1_1_" style="enable-background:new 0 0 36 42;" version="1.1" viewBox="0 0 36 42" xml:space="preserve" xmlns="http://www.w3.org/2000/svg" xmlns:xlink="http://www.w3.org/1999/xlink"><path fill="#F67280" d="M35,28H5c-0.553,0-1,0.447-1,1s0.447,1,1,1h29v3c0,0.553,0.447,1,1,1s1-0.447,1-1v-4C36,28.447,35.553,28,35,28z"/><path fill="#F67280" d="M35,24H1c-0.553,0-1,0.447-1,1v8c0,0.553,0.447,1,1,1h13.059c0.499,4.493,4.316,8,8.941,8c4.963,0,9-4.037,9-9  c0-0.553-0.447-1-1-1H2v-6h33c0.553,0,1-0.447,1-1S35.553,24,35,24z M23,36c1.105,0,2-0.895,2-2h4.92c-0.488,3.386-3.401,6-6.92,6  s-6.432-2.614-6.92-6H21C21,35.105,21.895,36,23,36z"/><path fill="#F67280" d="M35,4H5C4.447,4,4,4.447,4,5s0.447,1,1,1h29v3c0,0.553,0.447,1,1,1s1-0.447,1-1V5C36,4.447,35.553,4,35,4z"/><path fill="#F67280" d="M35,0H1C0.447,0,0,0.447,0,1v8c0,0.553,0.447,1,1,1h30c0.553,0,1-0.447,1-1s-0.447-1-1-1H2V2h33c0.553,0,1-0.447,1-1  S35.553,0,35,0z"/><path fill="#F67280" d="M1,12c-0.553,0-1,0.447-1,1v4c0,0.553,0.447,1,1,1h30c0.553,0,1-0.447,1-1s-0.447-1-1-1H2v-3C2,12.447,1.553,12,1,12z"/><path fill="#F67280" d="M35,12H5c-0.553,0-1,0.447-1,1s0.447,1,1,1h29v6H1c-0.553,0-1,0.447-1,1s0.447,1,1,1h34c0.553,0,1-0.447,1-1v-8  C36,12.447,35.553,12,35,12z"/></svg>
