<?xml version="1.0" ?><svg id="Layer_1_1_" style="enable-background:new 0 0 60 52;" version="1.1" viewBox="0 0 60 52" xml:space="preserve" xmlns="http://www.w3.org/2000/svg" xmlns:xlink="http://www.w3.org/1999/xlink"><path fill="#ECECEC" d="M59,0c-2.778,0-4.21,1.185-5.474,2.229C52.378,3.18,51.387,4,49.329,4s-3.05-0.821-4.198-1.771  C43.867,1.185,42.436,0,39.658,0c-2.776,0-4.208,1.185-5.471,2.23C33.04,3.18,32.049,4,29.993,4c-2.057,0-3.048-0.82-4.196-1.771  C24.534,1.185,23.103,0,20.326,0c-2.776,0-4.207,1.185-5.47,2.229C13.708,3.18,12.717,4,10.662,4C8.606,4,7.616,3.18,6.469,2.23  C5.207,1.185,3.776,0,1,0C0.448,0,0,0.448,0,1s0.448,1,1,1c2.055,0,3.046,0.82,4.193,1.771C6.456,4.815,7.886,6,10.662,6  c2.776,0,4.207-1.185,5.47-2.229C17.279,2.82,18.27,2,20.326,2c2.057,0,3.048,0.82,4.196,1.771C25.785,4.815,27.216,6,29.993,6  c2.776,0,4.207-1.185,5.47-2.229C36.61,2.82,37.602,2,39.658,2c2.058,0,3.049,0.82,4.197,1.771C45.119,4.815,46.551,6,49.329,6  c2.777,0,4.209-1.185,5.473-2.229C55.95,2.821,56.942,2,59,2c0.553,0,1-0.448,1-1S59.553,0,59,0z"/><path fill="#ECECEC" d="M59,8c-2.778,0-4.21,1.185-5.474,2.229C52.378,11.18,51.387,12,49.329,12s-3.05-0.821-4.198-1.771  C43.867,9.185,42.436,8,39.658,8c-2.776,0-4.208,1.185-5.471,2.23C33.04,11.18,32.049,12,29.993,12c-2.057,0-3.048-0.82-4.196-1.771  C24.534,9.185,23.103,8,20.326,8c-2.776,0-4.207,1.185-5.47,2.229C13.708,11.18,12.717,12,10.662,12c-2.055,0-3.045-0.82-4.193-1.77  C5.207,9.185,3.776,8,1,8C0.448,8,0,8.448,0,9s0.448,1,1,1c2.055,0,3.046,0.82,4.193,1.771C6.456,12.815,7.886,14,10.662,14  c2.776,0,4.207-1.185,5.47-2.229C17.279,10.82,18.27,10,20.326,10c2.057,0,3.048,0.82,4.196,1.771  C25.785,12.815,27.216,14,29.993,14c2.776,0,4.207-1.185,5.47-2.229C36.61,10.82,37.602,10,39.658,10  c2.058,0,3.049,0.82,4.197,1.771C45.119,12.815,46.551,14,49.329,14c2.777,0,4.209-1.185,5.473-2.229C55.95,10.821,56.942,10,59,10  c0.553,0,1-0.448,1-1S59.553,8,59,8z"/><path fill="#ECECEC" d="M59,16c-2.778,0-4.21,1.185-5.474,2.229C52.378,19.18,51.387,20,49.329,20s-3.05-0.821-4.198-1.771  C43.867,17.185,42.436,16,39.658,16c-2.776,0-4.208,1.185-5.471,2.23C33.04,19.18,32.049,20,29.993,20  c-2.057,0-3.048-0.82-4.196-1.771C24.534,17.185,23.103,16,20.326,16c-2.776,0-4.207,1.185-5.47,2.229  C13.708,19.18,12.717,20,10.662,20c-2.055,0-3.045-0.82-4.193-1.77C5.207,17.185,3.776,16,1,16c-0.552,0-1,0.448-1,1s0.448,1,1,1  c2.055,0,3.046,0.82,4.193,1.771C6.456,20.815,7.886,22,10.662,22c2.776,0,4.207-1.185,5.47-2.229C17.279,18.82,18.27,18,20.326,18  c2.057,0,3.048,0.82,4.196,1.771C25.785,20.815,27.216,22,29.993,22c2.776,0,4.207-1.185,5.47-2.229  C36.61,18.82,37.602,18,39.658,18c2.058,0,3.049,0.82,4.197,1.771C45.119,20.815,46.551,22,49.329,22  c2.777,0,4.209-1.185,5.473-2.229C55.95,18.821,56.942,18,59,18c0.553,0,1-0.448,1-1S59.553,16,59,16z"/><path fill="#ECECEC" d="M59,24c-2.778,0-4.21,1.185-5.474,2.229C52.378,27.18,51.387,28,49.329,28s-3.05-0.821-4.198-1.771  C43.867,25.185,42.436,24,39.658,24c-2.776,0-4.208,1.185-5.471,2.23C33.04,27.18,32.049,28,29.993,28  c-2.057,0-3.048-0.82-4.196-1.771C24.534,25.185,23.103,24,20.326,24c-2.776,0-4.207,1.185-5.47,2.229  C13.708,27.18,12.717,28,10.662,28c-2.055,0-3.045-0.82-4.193-1.77C5.207,25.185,3.776,24,1,24c-0.552,0-1,0.448-1,1s0.448,1,1,1  c2.055,0,3.046,0.82,4.193,1.771C6.456,28.815,7.886,30,10.662,30c2.776,0,4.207-1.185,5.47-2.229C17.279,26.82,18.27,26,20.326,26  c2.057,0,3.048,0.82,4.196,1.771C25.785,28.815,27.216,30,29.993,30c2.776,0,4.207-1.185,5.47-2.229  C36.61,26.82,37.602,26,39.658,26c2.058,0,3.049,0.82,4.197,1.771C45.119,28.815,46.551,30,49.329,30  c2.777,0,4.209-1.185,5.473-2.229C55.95,26.821,56.942,26,59,26c0.553,0,1-0.448,1-1S59.553,24,59,24z"/><path fill="#ECECEC" d="M59,32c-2.778,0-4.21,1.185-5.474,2.229C52.378,35.18,51.387,36,49.329,36s-3.05-0.821-4.198-1.771  C43.867,33.185,42.436,32,39.658,32c-2.776,0-4.208,1.185-5.471,2.23C33.04,35.18,32.049,36,29.993,36  c-2.057,0-3.048-0.82-4.196-1.771C24.534,33.185,23.103,32,20.326,32c-2.776,0-4.207,1.185-5.47,2.229  C13.708,35.18,12.717,36,10.662,36c-2.055,0-3.045-0.82-4.193-1.77C5.207,33.185,3.776,32,1,32c-0.552,0-1,0.448-1,1s0.448,1,1,1  c2.055,0,3.046,0.82,4.193,1.771C6.456,36.815,7.886,38,10.662,38c2.776,0,4.207-1.185,5.47-2.229C17.279,34.82,18.27,34,20.326,34  c2.057,0,3.048,0.82,4.196,1.771C25.785,36.815,27.216,38,29.993,38c2.776,0,4.207-1.185,5.47-2.229  C36.61,34.82,37.602,34,39.658,34c2.058,0,3.049,0.82,4.197,1.771C45.119,36.815,46.551,38,49.329,38  c2.777,0,4.209-1.185,5.473-2.229C55.95,34.821,56.942,34,59,34c0.553,0,1-0.448,1-1S59.553,32,59,32z"/><path fill="#ECECEC" d="M59,40c-2.778,0-4.21,1.185-5.474,2.229C52.378,43.18,51.387,44,49.329,44s-3.05-0.821-4.198-1.771  C43.867,41.185,42.436,40,39.658,40c-2.776,0-4.208,1.185-5.471,2.23C33.04,43.18,32.049,44,29.993,44  c-2.057,0-3.048-0.82-4.196-1.771C24.534,41.185,23.103,40,20.326,40c-2.776,0-4.207,1.185-5.47,2.229  C13.708,43.18,12.717,44,10.662,44c-2.055,0-3.045-0.82-4.193-1.77C5.207,41.185,3.776,40,1,40c-0.552,0-1,0.448-1,1s0.448,1,1,1  c2.055,0,3.046,0.82,4.193,1.771C6.456,44.815,7.886,46,10.662,46c2.776,0,4.207-1.185,5.47-2.229C17.279,42.82,18.27,42,20.326,42  c2.057,0,3.048,0.82,4.196,1.771C25.785,44.815,27.216,46,29.993,46c2.776,0,4.207-1.185,5.47-2.229  C36.61,42.82,37.602,42,39.658,42c2.058,0,3.049,0.82,4.197,1.771C45.119,44.815,46.551,46,49.329,46  c2.777,0,4.209-1.185,5.473-2.229C55.95,42.821,56.942,42,59,42c0.553,0,1-0.448,1-1S59.553,40,59,40z"/><circle cx="10" cy="50" r="2"/><circle cx="20" cy="50" r="2"/><circle cx="30" cy="50" r="2"/><circle cx="40" cy="50" r="2"/><circle cx="50" cy="50" r="2"/></svg>
